<svg xmlns="http://www.w3.org/2000/svg" viewBox="0 0 136 46"><title>Plan de travail 1</title><path d="M64.7,28.08l-1.45,7.26c-.64,3-2.42,4.91-6,4.91-4.16,0-5.26-2.58-4.35-6.22,1.29-5.15,5.5-6.68,11.84-6m6.55-10.38L66.82,18l-1.4,7.11C63.73,25,63.2,25,61.21,25,55,25,49.55,27.58,48.12,33.72c-1.29,5.53,1.85,9.82,8.71,9.82S66.91,39.88,68,34.73Z" style="fill:#2e3897"/><path d="M23.27,28.38c-6.49-.59-12.06,0-12.16,2.15C11,33.84,21.8,31,21.59,37c-.31,9-15.36,6.92-19.09,5.78l.67-2.65c6.43,1,13.2,1.1,13.35-2.44.16-3.76-10.72-.38-10.46-6.48.19-4.54,7-7,18.11-5.36Z" style="fill:#2e3897"/><path d="M40.75,34.46a7.61,7.61,0,0,1-7.42,6.07c-3.68,0-5.34-2.14-4.36-6.07a7.81,7.81,0,0,1,7.45-6.23c3.52,0,5.26,2.5,4.32,6.23M37,25.17c-6.45,0-11.64,3.74-12.91,9.29s2.19,9.29,8.64,9.29S44.37,40,45.64,34.46s-2.2-9.29-8.64-9.29" style="fill:#2e3897"/><path d="M111.51,43.66H105.9A101.5,101.5,0,0,1,91.22,25.35h4.11c4.54,6.27,16.18,18.31,16.18,18.31" style="fill:#2e3897"/><polygon points="117.39 7.29 119.97 1.91 120.7 7.38 125.96 5.54 122.29 10.25 126.27 13.34 120.95 13.75 120.66 19.43 117.7 15.23 113.36 19.24 114.98 13.6 109.86 12.89 114.85 10.06 112.8 5.19 117.39 7.29" style="fill:#2e3897"/><path d="M128.32,34.52a7.73,7.73,0,0,1-7.53,6.18c-3.74,0-5.43-2.17-4.42-6.18a7.92,7.92,0,0,1,7.57-6.33c3.58,0,5.34,2.55,4.39,6.33m-3.81-9.43c-6.55,0-11.82,3.79-13.11,9.43S113.63,44,120.18,44,132,40.17,133.3,34.52s-2.23-9.43-8.79-9.43" style="fill:#2e3897"/><path d="M87,42.1c10.59-5.87,19.79-14.91,26.3-22.73C108.59,34,97.3,42,87,42.1" style="fill:red"/><path d="M82.78,27.9c2,0,3.13.73,3.13,2.14,0,3.73-7.28,3.49-10.49,2.84a7.71,7.71,0,0,1,7.36-5m7.49,1.94c0-2.71-2.16-4.69-7-4.69-7.94,0-13.1,5.15-13.1,11.53,0,4.12,3.42,7.54,9.67,7.54A13,13,0,0,0,87,42.1c-5.47.59-12.21,0-12.21-5.85v-.7c7.47,1.55,15.47-.33,15.47-5.7" style="fill:#2e3897"/></svg>